<?xml version="1.0"?>
<svg xmlns="http://www.w3.org/2000/svg" height="512px" viewBox="0 0 448 448" width="512px"><path d="m448 412.6875v-230.304688l-142.105469 88.203126zm0 0" fill="#FFFFFF"/><path d="m80 213.207031 144 89.378907 96-59.585938v-187c.03125-8.683594 2.914062-17.117188 8.207031-24h-224.207031c-13.253906 0-24 10.746094-24 24zm208 26.792969h-144v-16h144zm-144-32v-16h96v16zm144 0h-32v-16h32zm0-32h-112v-16h112zm-80-32v-16h32v16zm80 0h-32v-16h32zm-128-80h128v16h-128zm-48 0h32v16h-32zm0 32h176v16h-176zm0 32h80v16h-80zm0 32h48v16h-48zm0 32h16v16h-16zm0 0" fill="#FFFFFF"/><path d="m64 107.3125-52.6875 52.6875h52.6875zm0 0" fill="#FFFFFF"/><path d="m0 412.6875 142.105469-142.101562-142.105469-88.203126zm0 0" fill="#FFFFFF"/><path d="m64 176h-43.945312l43.945312 27.273438zm0 0" fill="#FFFFFF"/><path d="m0 440c0 4.417969 3.582031 8 8 8h432c4.417969 0 8-3.582031 8-8v-4.6875l-156.0625-156.066406-63.722656 39.554687c-2.582032 1.601563-5.847656 1.601563-8.429688 0l-63.722656-39.554687-156.0625 156.066406zm0 0" fill="#FFFFFF"/><path d="m448 96v-96h-304v16h216c10.613281-.011719 20.792969 4.199219 28.296875 11.703125s11.714844 17.683594 11.703125 28.296875v40c0 13.253906 10.746094 24 24 24s24-10.746094 24-24zm0 0" fill="#FFFFFF"/><path d="m336 233.070312 91.945312-57.070312h-91.945312zm0 0" fill="#FFFFFF"/><path d="m336 136v24h100.6875l-24-24zm0 0" fill="#FFFFFF"/><path d="m376.945312 38.976562c-6.875-6.851562-17.199218-8.890624-26.160156-5.164062-8.960937 3.726562-14.796875 12.480469-14.785156 22.1875v64h56c-5.207031-6.917969-8.015625-15.34375-8-24v-40c-.007812-6.382812-2.546875-12.503906-7.054688-17.023438zm0 0" fill="#FFFFFF"/></svg>
